<svg width="200" height="56" viewBox="0 0 200 56" fill="none" xmlns="http://www.w3.org/2000/svg">
<path d="M44.4545 13.4293L37.2273 15.4748C36.7727 14.2702 36.1023 13.0998 35.2159 11.9634C34.3523 10.8043 33.1705 9.84976 31.6705 9.09976C30.1705 8.34976 28.25 7.97476 25.9091 7.97476C22.7045 7.97476 20.0341 8.7134 17.8977 10.1907C15.7841 11.6452 14.7273 13.4975 14.7273 15.7475C14.7273 17.7475 15.4545 19.327 16.9091 20.4861C18.3636 21.6452 20.6364 22.6111 23.7273 23.3839L31.5 25.2929C36.1818 26.4293 39.6705 28.1679 41.9659 30.5089C44.2614 32.827 45.4091 35.8157 45.4091 39.4748C45.4091 42.4748 44.5455 45.1566 42.8182 47.5202C41.1136 49.8839 38.7273 51.7475 35.6591 53.1111C32.5909 54.4748 29.0227 55.1566 24.9545 55.1566C19.6136 55.1566 15.1932 53.9975 11.6932 51.6793C8.19318 49.3611 5.97727 45.9748 5.04545 41.5202L12.6818 39.6111C13.4091 42.4293 14.7841 44.5429 16.8068 45.952C18.8523 47.3611 21.5227 48.0657 24.8182 48.0657C28.5682 48.0657 31.5455 47.2702 33.75 45.6793C35.9773 44.0657 37.0909 42.1339 37.0909 39.8839C37.0909 38.0657 36.4545 36.5429 35.1818 35.3157C33.9091 34.0657 31.9545 33.1339 29.3182 32.5202L20.5909 30.4748C15.7955 29.3384 12.2727 27.577 10.0227 25.1907C7.79545 22.7816 6.68182 19.7702 6.68182 16.1566C6.68182 13.202 7.51136 10.5884 9.17045 8.31567C10.8523 6.04295 13.1364 4.25885 16.0227 2.9634C18.9318 1.66795 22.2273 1.02022 25.9091 1.02022C31.0909 1.02022 35.1591 2.15658 38.1136 4.42931C41.0909 6.70204 43.2045 9.70204 44.4545 13.4293Z" fill="#ECF15E"/>
<path d="M70.0551 54.8633C75.1004 54.9133 79.4635 53.843 83.1445 51.6521C86.803 49.4383 89.6408 46.3299 91.6579 42.327C93.6525 38.3012 94.6764 33.6066 94.7296 28.2432C94.7828 22.8798 93.8525 18.1431 91.9387 14.033C90.0023 9.89992 87.2843 6.66824 83.7845 4.33794C80.2622 1.98469 76.1376 0.784605 71.4105 0.737694C68.6834 0.710629 65.9858 1.13842 63.3178 2.02108C60.6499 2.90374 58.2149 4.35692 56.0128 6.38062C53.8111 8.3816 52.0459 11.046 50.7174 14.3739C49.3888 17.7018 48.7003 21.8088 48.6518 26.6949L48.618 30.1039L88.9796 30.5044L89.0486 23.5502L56.8684 23.2309C56.8977 20.2765 57.5148 17.6461 58.7195 15.3397C59.9016 13.0332 61.5787 11.2202 63.751 9.90077C65.9006 8.58113 68.4298 7.93574 71.3388 7.96461C74.5432 7.99641 77.3079 8.81934 79.6329 10.4334C81.9354 12.0245 83.6991 14.0876 84.924 16.6226C86.1489 19.1576 86.747 21.8682 86.7184 24.7544L86.6724 29.3906C86.6331 33.3449 85.9181 36.6902 84.5272 39.4266C83.1139 42.14 81.1729 44.2003 78.7042 45.6077C76.2358 46.9924 73.3767 47.6686 70.1269 47.6364C68.0133 47.6154 66.1073 47.301 64.4087 46.6932C62.6876 46.0625 61.208 45.1386 59.97 43.9217C58.7323 42.6821 57.7815 41.1499 57.1178 39.325L49.3238 41.4296C50.1158 44.074 51.4677 46.4057 53.3796 48.4247C55.2917 50.4211 57.6626 51.9902 60.4923 53.1319C63.3223 54.251 66.5099 54.8281 70.0551 54.8633Z" fill="#ECF15E"/>
<path d="M119.318 55.1566C114.273 55.1566 109.92 54.0429 106.261 51.8157C102.625 49.5657 99.8182 46.4293 97.8409 42.4066C95.8864 38.3611 94.9091 33.6566 94.9091 28.2929C94.9091 22.9293 95.8864 18.202 97.8409 14.1111C99.8182 9.99749 102.568 6.79295 106.091 4.49749C109.636 2.17931 113.773 1.02022 118.5 1.02022C121.227 1.02022 123.92 1.47476 126.58 2.38385C129.239 3.29294 131.659 4.77022 133.841 6.81567C136.023 8.8384 137.761 11.5202 139.057 14.8611C140.352 18.202 141 22.3157 141 27.202V30.6111H100.636V23.6566H132.818C132.818 20.702 132.227 18.0657 131.045 15.7475C129.886 13.4293 128.227 11.5998 126.068 10.2589C123.932 8.91794 121.409 8.24749 118.5 8.24749C115.295 8.24749 112.523 9.04294 110.182 10.6339C107.864 12.202 106.08 14.2475 104.83 16.7702C103.58 19.2929 102.955 21.9975 102.955 24.8839V29.5202C102.955 33.4748 103.636 36.827 105 39.577C106.386 42.3043 108.307 44.3839 110.761 45.8157C113.216 47.2248 116.068 47.9293 119.318 47.9293C121.432 47.9293 123.341 47.6339 125.045 47.0429C126.773 46.4293 128.261 45.5202 129.511 44.3157C130.761 43.0884 131.727 41.5657 132.409 39.7475L140.182 41.9293C139.364 44.5657 137.989 46.8839 136.057 48.8839C134.125 50.8611 131.739 52.4066 128.898 53.5202C126.057 54.6111 122.864 55.1566 119.318 55.1566Z" fill="#ECF15E"/>
<path d="M158.409 22.5657V54.0657H150.364V1.70204H158.136V9.88385H158.818C160.045 7.22476 161.909 5.0884 164.409 3.47477C166.909 1.8384 170.136 1.02022 174.091 1.02022C177.636 1.02022 180.739 1.74749 183.398 3.20204C186.057 4.63386 188.125 6.81567 189.602 9.74749C191.08 12.6566 191.818 16.3384 191.818 20.7929V54.0657H183.773V21.3384C183.773 17.2248 182.705 14.0202 180.568 11.7248C178.432 9.40658 175.5 8.24749 171.773 8.24749C169.205 8.24749 166.909 8.80431 164.886 9.91794C162.886 11.0316 161.307 12.6566 160.148 14.7929C158.989 16.9293 158.409 19.5202 158.409 22.5657Z" fill="#ECF15E"/>
</svg>
