<svg width="32" height="32" viewBox="0 0 32 32" fill="none" xmlns="http://www.w3.org/2000/svg">
<path opacity="0.24" d="M15.0693 28.8199C15.3645 28.9922 15.512 29.0783 15.7203 29.1229C15.882 29.1576 16.1178 29.1576 16.2795 29.1229C16.4878 29.0783 16.6354 28.9922 16.9306 28.8199C19.528 27.3046 26.6666 22.5447 26.6666 16.0001V9.62358C26.6666 8.55756 26.6666 8.02456 26.4922 7.56638C26.3382 7.16163 26.0879 6.80048 25.763 6.51415C25.3953 6.19003 24.8962 6.00288 23.898 5.62858L16.749 2.94768C16.4718 2.84373 16.3332 2.79176 16.1906 2.77115C16.0641 2.75288 15.9357 2.75288 15.8092 2.77115C15.6666 2.79176 15.528 2.84373 15.2509 2.94768L8.10179 5.62858C7.10365 6.00288 6.60458 6.19003 6.2368 6.51415C5.9119 6.80048 5.66162 7.16163 5.5076 7.56638C5.33325 8.02456 5.33325 8.55757 5.33325 9.62358V16.0001C5.33325 22.5447 12.4719 27.3046 15.0693 28.8199Z" fill="#ECF15E"/>
<path d="M17.3333 9.99999L13.3333 14L18.6666 16.6667L14.6666 20.6667M26.6666 16C26.6666 22.5446 19.528 27.3045 16.9306 28.8198C16.6354 28.992 16.4878 29.0781 16.2795 29.1228C16.1178 29.1575 15.882 29.1575 15.7203 29.1228C15.512 29.0781 15.3645 28.992 15.0693 28.8198C12.4719 27.3045 5.33325 22.5446 5.33325 16V9.62346C5.33325 8.55744 5.33325 8.02444 5.5076 7.56626C5.66162 7.16151 5.9119 6.80036 6.2368 6.51403C6.60458 6.18991 7.10365 6.00276 8.10179 5.62845L15.2509 2.94756C15.528 2.84361 15.6666 2.79163 15.8092 2.77103C15.9357 2.75276 16.0641 2.75276 16.1906 2.77103C16.3332 2.79163 16.4718 2.84361 16.749 2.94756L23.898 5.62845C24.8962 6.00276 25.3953 6.18991 25.763 6.51403C26.0879 6.80036 26.3382 7.16151 26.4922 7.56626C26.6666 8.02444 26.6666 8.55744 26.6666 9.62346V16Z" stroke="#ECF15E" stroke-width="2" stroke-linecap="round" stroke-linejoin="round"/>
</svg>
