<svg width="14" height="13" viewBox="0 0 14 13" fill="none" xmlns="http://www.w3.org/2000/svg">
<path d="M13.9494 9.45615C13.8529 9.21049 13.667 9.07771 13.456 8.97148C13.4167 8.95156 13.381 8.93164 13.3488 8.91836C13.2844 8.88849 13.2201 8.85861 13.1557 8.82873C12.4979 8.50341 11.9831 8.09841 11.6292 7.61374C11.5291 7.47763 11.4397 7.33157 11.3682 7.18218C11.3361 7.10251 11.3396 7.05604 11.3611 7.01288C11.3825 6.97969 11.4111 6.95313 11.4469 6.92989C11.5613 6.86018 11.6757 6.79046 11.7543 6.74399C11.8938 6.65768 12.0082 6.59129 12.0797 6.54481C12.3478 6.36887 12.5373 6.18297 12.6552 5.97383C12.8233 5.6817 12.8447 5.33978 12.716 5.03105C12.5373 4.59286 12.094 4.32396 11.5541 4.32396C11.4397 4.32396 11.3289 4.33392 11.2145 4.35716C11.1859 4.3638 11.1537 4.37044 11.1251 4.37708C11.1287 4.07831 11.1216 3.76294 11.093 3.45089C10.9929 2.35873 10.5782 1.78775 10.1492 1.33296C9.87387 1.04747 9.55212 0.805132 9.19105 0.615912C8.5404 0.270668 7.80037 0.0947266 6.99599 0.0947266C6.19161 0.0947266 5.45516 0.270668 4.80451 0.615912C4.44343 0.805132 4.12168 1.04747 3.84641 1.33296C3.41741 1.78775 3.00628 2.36205 2.90261 3.45089C2.87401 3.76294 2.86686 4.07831 2.87043 4.37708C2.84183 4.37044 2.81323 4.3638 2.78106 4.35716C2.67023 4.33392 2.55583 4.32396 2.445 4.32396C1.90518 4.32396 1.46188 4.59617 1.28313 5.03105C1.15443 5.33978 1.17588 5.6817 1.3439 5.97383C1.46188 6.18297 1.65135 6.36887 1.91948 6.54481C1.99098 6.59129 2.1018 6.65768 2.2448 6.74399C2.31988 6.79046 2.4307 6.85686 2.54153 6.92325C2.58085 6.94649 2.61303 6.97637 2.63805 7.01288C2.6595 7.05604 2.66308 7.10251 2.62733 7.18882C2.55583 7.33489 2.47003 7.47763 2.36993 7.61042C2.02315 8.08181 1.52265 8.48349 0.8863 8.80549C0.550249 8.97148 0.199898 9.08103 0.0497478 9.45615C-0.0610775 9.73832 0.0104227 10.057 0.292849 10.3292C0.396524 10.4288 0.518074 10.5151 0.65035 10.5815C0.925625 10.7209 1.21878 10.8305 1.52623 10.9068C1.59058 10.9234 1.64778 10.9467 1.7014 10.9799C1.80508 11.0629 1.79078 11.189 1.92663 11.3749C1.99455 11.4712 2.08393 11.5542 2.18403 11.6206C2.4736 11.8065 2.79893 11.8164 3.14213 11.8297C3.45316 11.8397 3.80351 11.8529 4.20748 11.9758C4.37551 12.0256 4.54711 12.1251 4.74731 12.2413C5.22994 12.5169 5.88774 12.892 6.99242 12.892C8.09709 12.892 8.75847 12.5135 9.24467 12.238C9.44487 12.1251 9.61647 12.0256 9.77735 11.9758C10.1778 11.8529 10.5317 11.8397 10.8427 11.8297C11.1859 11.8164 11.5112 11.8065 11.8008 11.6206C11.9224 11.5409 12.0225 11.4413 12.094 11.3218C12.1941 11.1658 12.1905 11.0562 12.2834 10.9799C12.3335 10.9467 12.3907 10.9234 12.4479 10.9102C12.7553 10.8338 13.0556 10.7243 13.3345 10.5815C13.4739 10.5118 13.6026 10.4188 13.7099 10.3093L13.7134 10.306C13.9923 10.0404 14.0602 9.72836 13.9494 9.45615ZM12.9698 9.94414C12.3728 10.2495 11.9724 10.2163 11.665 10.4022C11.4004 10.5583 11.5577 10.8969 11.3682 11.0197C11.1323 11.1691 10.4387 11.0097 9.54497 11.2853C8.80495 11.511 8.33662 12.165 7.00672 12.165C5.67681 12.165 5.21921 11.5143 4.46846 11.2853C3.57471 11.0097 2.88116 11.1724 2.64521 11.0197C2.45573 10.8969 2.60946 10.5583 2.34848 10.4022C2.03745 10.2163 1.64063 10.2495 1.0436 9.94414C0.661075 9.74828 0.87915 9.62877 1.00428 9.57233C3.17073 8.59968 3.51751 7.09587 3.53181 6.983C3.54968 6.8469 3.57113 6.74067 3.41026 6.60456C3.25653 6.47178 2.57013 6.07674 2.37708 5.95391C2.06248 5.74809 1.92305 5.5456 2.02673 5.2933C2.09823 5.12068 2.2734 5.05429 2.45573 5.05429C2.51293 5.05429 2.57013 5.06093 2.62733 5.07088C2.97411 5.1406 3.31016 5.29994 3.50321 5.34642C3.52823 5.35306 3.54968 5.35638 3.57471 5.35638C3.67838 5.35638 3.71413 5.30658 3.70698 5.19703C3.68553 4.84515 3.63191 4.1613 3.69268 3.52061C3.77491 2.6409 4.07878 2.20271 4.44343 1.81763C4.61861 1.63173 5.43729 0.82837 7.00672 0.82837C8.57615 0.82837 9.39482 1.62841 9.57 1.81431C9.93465 2.19939 10.2385 2.63758 10.3208 3.51729C10.3815 4.15798 10.3279 4.84183 10.3029 5.19371C10.2957 5.3099 10.3315 5.35306 10.4352 5.35306C10.4602 5.35306 10.4816 5.34974 10.5067 5.3431C10.6997 5.29994 11.0358 5.13728 11.3825 5.06757C11.4397 5.05429 11.4969 5.05097 11.5541 5.05097C11.7365 5.05097 11.9116 5.11736 11.9831 5.28998C12.0868 5.54228 11.9474 5.74477 11.6328 5.95059C11.4433 6.07342 10.7569 6.46846 10.5996 6.60124C10.4387 6.73735 10.4602 6.84358 10.4781 6.97969C10.4924 7.09255 10.8391 8.59636 13.0056 9.56902C13.1343 9.62545 13.3488 9.74828 12.9698 9.94414Z" fill="black"/>
</svg>
