<svg width="30" height="26" viewBox="0 0 30 26" fill="none" xmlns="http://www.w3.org/2000/svg">
<path d="M23 18.1158C24.9412 19.091 26.6055 20.6559 27.8203 22.6128C28.0609 23.0004 28.1812 23.1941 28.2228 23.4624C28.3073 24.0077 27.9344 24.678 27.4266 24.8938C27.1767 25 26.8956 25 26.3334 25M20.3334 12.3763C22.309 11.3945 23.6667 9.35581 23.6667 7C23.6667 4.64419 22.309 2.60548 20.3334 1.62368M17.6667 7C17.6667 10.3137 14.9804 13 11.6667 13C8.35298 13 5.66669 10.3137 5.66669 7C5.66669 3.68629 8.35298 1 11.6667 1C14.9804 1 17.6667 3.68629 17.6667 7ZM2.41233 22.2511C4.53808 19.0594 7.89252 17 11.6667 17C15.4409 17 18.7953 19.0594 20.9211 22.2511C21.3867 22.9503 21.6196 23.2999 21.5928 23.7466C21.5719 24.0943 21.344 24.52 21.0661 24.7301C20.7093 25 20.2185 25 19.2369 25H4.0965C3.11492 25 2.62413 25 2.26728 24.7301C1.98942 24.52 1.76148 24.0943 1.7406 23.7466C1.7138 23.2999 1.94664 22.9503 2.41233 22.2511Z" stroke="#ECF15E" stroke-width="2" stroke-linecap="round" stroke-linejoin="round"/>
</svg>
