<svg width="200" height="56" viewBox="0 0 200 56" fill="none" xmlns="http://www.w3.org/2000/svg">
<path d="M44.4545 13.4291L37.2273 15.4745C36.7727 14.27 36.1023 13.0995 35.2159 11.9632C34.3523 10.8041 33.1705 9.84952 31.6705 9.09952C30.1705 8.34952 28.25 7.97452 25.9091 7.97452C22.7045 7.97452 20.0341 8.71316 17.8977 10.1904C15.7841 11.645 14.7273 13.4972 14.7273 15.7472C14.7273 17.7472 15.4545 19.3268 16.9091 20.4859C18.3636 21.645 20.6364 22.6109 23.7273 23.3836L31.5 25.2927C36.1818 26.4291 39.6705 28.1677 41.9659 30.5086C44.2614 32.8268 45.4091 35.8154 45.4091 39.4745C45.4091 42.4745 44.5455 45.1563 42.8182 47.52C41.1136 49.8836 38.7273 51.7472 35.6591 53.1109C32.5909 54.4745 29.0227 55.1563 24.9545 55.1563C19.6136 55.1563 15.1932 53.9972 11.6932 51.6791C8.19318 49.3609 5.97727 45.9745 5.04545 41.52L12.6818 39.6109C13.4091 42.4291 14.7841 44.5427 16.8068 45.9518C18.8523 47.3609 21.5227 48.0654 24.8182 48.0654C28.5682 48.0654 31.5455 47.27 33.75 45.6791C35.9773 44.0654 37.0909 42.1336 37.0909 39.8836C37.0909 38.0654 36.4545 36.5427 35.1818 35.3154C33.9091 34.0654 31.9545 33.1336 29.3182 32.52L20.5909 30.4745C15.7955 29.3382 12.2727 27.5768 10.0227 25.1904C7.79545 22.7813 6.68182 19.77 6.68182 16.1563C6.68182 13.2018 7.51136 10.5882 9.17045 8.31543C10.8523 6.0427 13.1364 4.25861 16.0227 2.96315C18.9318 1.6677 22.2273 1.01998 25.9091 1.01998C31.0909 1.01998 35.1591 2.15634 38.1136 4.42906C41.0909 6.70179 43.2045 9.70179 44.4545 13.4291Z" fill="#ECF15E"/>
<path d="M70.0551 54.863C75.1004 54.9131 79.4635 53.8427 83.1445 51.6519C86.803 49.4381 89.6408 46.3297 91.6579 42.3268C93.6525 38.3009 94.6764 33.6063 94.7296 28.2429C94.7828 22.8796 93.8525 18.1428 91.9387 14.0327C90.0023 9.89967 87.2843 6.66799 83.7845 4.33769C80.2622 1.98444 76.1376 0.784361 71.4105 0.737449C68.6834 0.710385 65.9858 1.13818 63.3178 2.02084C60.6499 2.9035 58.2149 4.35668 56.0128 6.38038C53.8111 8.38136 52.0459 11.0458 50.7174 14.3737C49.3888 17.7016 48.7003 21.8086 48.6518 26.6947L48.618 30.1036L88.9796 30.5042L89.0486 23.55L56.8684 23.2306C56.8977 20.2762 57.5148 17.6458 58.7195 15.3395C59.9016 13.0329 61.5787 11.2199 63.751 9.90053C65.9006 8.58088 68.4298 7.93549 71.3388 7.96436C74.5432 7.99616 77.3079 8.8191 79.6329 10.4332C81.9354 12.0243 83.6991 14.0873 84.924 16.6223C86.1489 19.1573 86.747 21.868 86.7184 24.7542L86.6724 29.3903C86.6331 33.3447 85.9181 36.69 84.5272 39.4263C83.1139 42.1397 81.1729 44.2001 78.7042 45.6075C76.2358 46.9922 73.3767 47.6684 70.1269 47.6361C68.0133 47.6151 66.1073 47.3008 64.4087 46.693C62.6876 46.0622 61.208 45.1384 59.97 43.9215C58.7323 42.6819 57.7815 41.1496 57.1178 39.3248L49.3238 41.4294C50.1158 44.0737 51.4677 46.4054 53.3796 48.4245C55.2917 50.4208 57.6626 51.9899 60.4923 53.1317C63.3223 54.2507 66.5099 54.8278 70.0551 54.863Z" fill="#ECF15E"/>
<path d="M119.318 55.1563C114.273 55.1563 109.92 54.0427 106.261 51.8154C102.625 49.5654 99.8182 46.4291 97.8409 42.4063C95.8864 38.3609 94.9091 33.6563 94.9091 28.2927C94.9091 22.9291 95.8864 18.2018 97.8409 14.1109C99.8182 9.99725 102.568 6.7927 106.091 4.49725C109.636 2.17907 113.773 1.01998 118.5 1.01998C121.227 1.01998 123.92 1.47452 126.58 2.38361C129.239 3.2927 131.659 4.76997 133.841 6.81543C136.023 8.83816 137.761 11.52 139.057 14.8609C140.352 18.2018 141 22.3154 141 27.2018V30.6109H100.636V23.6563H132.818C132.818 20.7018 132.227 18.0654 131.045 15.7472C129.886 13.4291 128.227 11.5995 126.068 10.2586C123.932 8.9177 121.409 8.24725 118.5 8.24725C115.295 8.24725 112.523 9.0427 110.182 10.6336C107.864 12.2018 106.08 14.2472 104.83 16.77C103.58 19.2927 102.955 21.9972 102.955 24.8836V29.52C102.955 33.4745 103.636 36.8268 105 39.5768C106.386 42.3041 108.307 44.3836 110.761 45.8154C113.216 47.2245 116.068 47.9291 119.318 47.9291C121.432 47.9291 123.341 47.6336 125.045 47.0427C126.773 46.4291 128.261 45.52 129.511 44.3154C130.761 43.0882 131.727 41.5654 132.409 39.7472L140.182 41.9291C139.364 44.5654 137.989 46.8836 136.057 48.8836C134.125 50.8609 131.739 52.4063 128.898 53.52C126.057 54.6109 122.864 55.1563 119.318 55.1563Z" fill="#ECF15E"/>
<path d="M158.409 22.5654V54.0654H150.364V1.70179H158.136V9.88361H158.818C160.045 7.22452 161.909 5.08816 164.409 3.47452C166.909 1.83816 170.136 1.01998 174.091 1.01998C177.636 1.01998 180.739 1.74725 183.398 3.20179C186.057 4.63361 188.125 6.81543 189.602 9.74725C191.08 12.6563 191.818 16.3382 191.818 20.7927V54.0654H183.773V21.3382C183.773 17.2245 182.705 14.02 180.568 11.7245C178.432 9.40634 175.5 8.24725 171.773 8.24725C169.205 8.24725 166.909 8.80406 164.886 9.9177C162.886 11.0313 161.307 12.6563 160.148 14.7927C158.989 16.9291 158.409 19.52 158.409 22.5654Z" fill="#ECF15E"/>
</svg>
