<svg width="13" height="13" viewBox="0 0 13 13" fill="none" xmlns="http://www.w3.org/2000/svg">
<path d="M0 13L0.91379 9.66171C0.349916 8.68454 0.0536249 7.57683 0.0541665 6.44096C0.0557915 2.88979 2.94558 0 6.49619 0C8.21923 0.000541667 9.83664 0.671667 11.0532 1.88933C12.2693 3.107 12.9388 4.7255 12.9382 6.44692C12.9366 9.99863 10.0468 12.8884 6.49619 12.8884C5.41828 12.8879 4.35607 12.6176 3.4152 12.1041L0 13ZM3.57337 10.9379C4.4812 11.4768 5.34786 11.7997 6.49403 11.8002C9.44502 11.8002 11.8489 9.39846 11.8506 6.44583C11.8516 3.48725 9.4591 1.08875 6.49836 1.08767C3.5452 1.08767 1.14291 3.48942 1.14183 6.4415C1.14129 7.64671 1.49445 8.54912 2.08758 9.49325L1.54645 11.4693L3.57337 10.9379ZM9.74131 7.97821C9.70123 7.91104 9.59398 7.87096 9.43256 7.79025C9.27169 7.70954 8.48031 7.32008 8.33244 7.26646C8.18511 7.21283 8.07786 7.18575 7.97007 7.34717C7.86282 7.50804 7.55407 7.87096 7.46036 7.97821C7.36665 8.08546 7.2724 8.099 7.11153 8.01829C6.95065 7.93758 6.43174 7.76804 5.81694 7.21933C5.33865 6.7925 5.01528 6.26546 4.92157 6.10404C4.82786 5.94317 4.91182 5.85596 4.99199 5.77579C5.06457 5.70375 5.15286 5.58783 5.23357 5.49358C5.31536 5.40042 5.3419 5.33325 5.39607 5.22546C5.4497 5.11821 5.42315 5.02396 5.38253 4.94325C5.3419 4.86308 5.02016 4.07063 4.88636 3.74833C4.75528 3.43471 4.62257 3.47696 4.52399 3.47208L4.21524 3.46667C4.10799 3.46667 3.93357 3.50675 3.78624 3.66817C3.63891 3.82958 3.22291 4.2185 3.22291 5.01096C3.22291 5.80342 3.79978 6.56879 3.87995 6.67604C3.96066 6.78329 5.01474 8.40938 6.62944 9.1065C7.01348 9.27225 7.31357 9.37138 7.54702 9.44558C7.93269 9.568 8.28369 9.55067 8.56102 9.5095C8.87031 9.46346 9.51327 9.12004 9.6476 8.74413C9.78194 8.36767 9.78194 8.04537 9.74131 7.97821Z" fill="black"/>
</svg>
