<svg width="24" height="24" viewBox="0 0 24 24" fill="none" xmlns="http://www.w3.org/2000/svg">
<g clip-path="url(#clip0_1_5114)">
<path d="M23.9999 9.72375V18.9998C23.9983 20.3254 23.471 21.5962 22.5337 22.5335C21.5964 23.4709 20.3255 23.9982 18.9999 23.9998H17.9999C17.7347 23.9998 17.4803 23.8944 17.2928 23.7069C17.1053 23.5193 16.9999 23.265 16.9999 22.9998C16.9999 22.7345 17.1053 22.4802 17.2928 22.2926C17.4803 22.1051 17.7347 21.9998 17.9999 21.9998H18.9999C19.7956 21.9998 20.5586 21.6837 21.1212 21.1211C21.6838 20.5585 21.9999 19.7954 21.9999 18.9998V9.72375C21.9999 9.23267 21.8794 8.74909 21.6489 8.31547C21.4184 7.88184 21.085 7.51143 20.6779 7.23675L13.6779 2.51375C13.1833 2.17656 12.5985 1.99621 11.9999 1.99621C11.4013 1.99621 10.8165 2.17656 10.3219 2.51375L3.32191 7.23675C2.91483 7.51143 2.58141 7.88184 2.35091 8.31547C2.12041 8.74909 1.99988 9.23267 1.99991 9.72375V18.9998C1.99991 19.7954 2.31598 20.5585 2.87859 21.1211C3.4412 21.6837 4.20426 21.9998 4.99991 21.9998H5.99991C6.26513 21.9998 6.51948 22.1051 6.70702 22.2926C6.89456 22.4802 6.99991 22.7345 6.99991 22.9998C6.99991 23.265 6.89456 23.5193 6.70702 23.7069C6.51948 23.8944 6.26513 23.9998 5.99991 23.9998H4.99991C3.67432 23.9982 2.40347 23.4709 1.46613 22.5335C0.528794 21.5962 0.00150022 20.3254 -8.76357e-05 18.9998V9.72375C-0.00111251 8.90547 0.198991 8.09948 0.582617 7.37669C0.966242 6.65391 1.52163 6.03649 2.19991 5.57875L9.19991 0.854753C10.0252 0.294706 10.9996 -0.00469971 11.9969 -0.00469971C12.9943 -0.00469971 13.9687 0.294706 14.7939 0.854753L21.7939 5.57875C22.4729 6.03625 23.0291 6.65347 23.4137 7.37619C23.7984 8.09892 23.9997 8.90505 23.9999 9.72375ZM18.9999 15.0068C19.0025 15.9263 18.8226 16.8371 18.4707 17.6866C18.1188 18.5361 17.6019 19.3074 16.9499 19.9558L13.4349 23.3938C13.0501 23.7663 12.5355 23.9746 11.9999 23.9746C11.4643 23.9746 10.9497 23.7663 10.5649 23.3938L7.05791 19.9638C6.24231 19.1507 5.6399 18.149 5.3041 17.0474C4.9683 15.9458 4.90947 14.7783 5.13284 13.6486C5.35621 12.5188 5.85487 11.4616 6.58462 10.5707C7.31436 9.67974 8.25265 8.98263 9.3163 8.54112C10.3799 8.09961 11.5361 7.92735 12.6822 8.03961C13.8284 8.15186 14.9292 8.54517 15.8869 9.18466C16.8447 9.82416 17.6299 10.6901 18.1729 11.7057C18.7159 12.7212 19 13.8551 18.9999 15.0068ZM16.9999 15.0068C16.9999 14.1845 16.7972 13.375 16.4096 12.6498C16.022 11.9247 15.4616 11.3063 14.7779 10.8495C14.0943 10.3926 13.3086 10.1114 12.4903 10.0308C11.672 9.95015 10.8465 10.0726 10.0868 10.3871C9.32717 10.7017 8.65681 11.1988 8.13514 11.8344C7.61347 12.4699 7.25658 13.2243 7.09609 14.0307C6.9356 14.8371 6.97645 15.6707 7.21504 16.4576C7.45363 17.2444 7.88259 17.9603 8.46391 18.5418L11.9639 21.9638L15.5439 18.5338C16.0075 18.0712 16.3749 17.5213 16.6248 16.9159C16.8747 16.3106 17.0022 15.6617 16.9999 15.0068ZM14.9999 14.9998C14.9999 15.5931 14.824 16.1731 14.4943 16.6665C14.1647 17.1598 13.6961 17.5443 13.148 17.7714C12.5998 17.9985 11.9966 18.0579 11.4146 17.9421C10.8327 17.8264 10.2982 17.5406 9.87859 17.1211C9.45903 16.7015 9.17331 16.167 9.05756 15.585C8.9418 15.0031 9.00121 14.3999 9.22827 13.8517C9.45534 13.3035 9.83986 12.835 10.3332 12.5053C10.8266 12.1757 11.4066 11.9998 11.9999 11.9998C12.7956 11.9998 13.5586 12.3158 14.1212 12.8784C14.6838 13.441 14.9999 14.2041 14.9999 14.9998Z" fill="#374957"/>
</g>
<defs>
<clipPath id="clip0_1_5114">
<rect width="24" height="24" fill="white"/>
</clipPath>
</defs>
</svg>
