<svg width="32" height="32" viewBox="0 0 32 32" fill="none" xmlns="http://www.w3.org/2000/svg">
<g clip-path="url(#clip0_1_5514)" filter="url(#filter0_d_1_5514)">
<path d="M10.9999 24.0006C12.1045 24.0006 12.9999 23.1052 12.9999 22.0006C12.9999 20.896 12.1045 20.0006 10.9999 20.0006C9.89534 20.0006 8.99991 20.896 8.99991 22.0006C8.99991 23.1052 9.89534 24.0006 10.9999 24.0006Z" fill="#374957"/>
<path d="M21 24.0006C22.1046 24.0006 23 23.1052 23 22.0006C23 20.896 22.1046 20.0006 21 20.0006C19.8954 20.0006 19 20.896 19 22.0006C19 23.1052 19.8954 24.0006 21 24.0006Z" fill="#374957"/>
<path d="M27.0001 3H25.0001V1C25.0001 0.734784 24.8947 0.48043 24.7072 0.292893C24.5197 0.105357 24.2653 0 24.0001 0C23.7349 0 23.4805 0.105357 23.293 0.292893C23.1054 0.48043 23.0001 0.734784 23.0001 1V3H21.0001C20.7349 3 20.4805 3.10536 20.293 3.29289C20.1054 3.48043 20.0001 3.73478 20.0001 4C20.0001 4.26522 20.1054 4.51957 20.293 4.70711C20.4805 4.89464 20.7349 5 21.0001 5H23.0001V7C23.0001 7.26522 23.1054 7.51957 23.293 7.70711C23.4805 7.89464 23.7349 8 24.0001 8C24.2653 8 24.5197 7.89464 24.7072 7.70711C24.8947 7.51957 25.0001 7.26522 25.0001 7V5H27.0001C27.2653 5 27.5196 4.89464 27.7072 4.70711C27.8947 4.51957 28.0001 4.26522 28.0001 4C28.0001 3.73478 27.8947 3.48043 27.7072 3.29289C27.5196 3.10536 27.2653 3 27.0001 3Z" fill="#374957"/>
<path d="M25.771 9.726C25.6417 9.70181 25.5089 9.70352 25.3803 9.73103C25.2516 9.75854 25.1297 9.81132 25.0216 9.88629C24.9136 9.96126 24.8214 10.0569 24.7506 10.1678C24.6798 10.2786 24.6316 10.4024 24.609 10.532C24.4843 11.2242 24.1203 11.8505 23.5808 12.3016C23.0412 12.7527 22.3603 12.9999 21.657 13H9.418L8.478 5H17C17.2652 5 17.5196 4.89464 17.7071 4.70711C17.8946 4.51957 18 4.26522 18 4C18 3.73478 17.8946 3.48043 17.7071 3.29289C17.5196 3.10536 17.2652 3 17 3H8.242L8.2 2.648C8.11382 1.9186 7.76306 1.24615 7.21419 0.758104C6.66532 0.270054 5.95647 0.000312836 5.222 0L5 0C4.73478 0 4.48043 0.105357 4.29289 0.292893C4.10536 0.48043 4 0.734784 4 1C4 1.26522 4.10536 1.51957 4.29289 1.70711C4.48043 1.89464 4.73478 2 5 2H5.222C5.46693 2.00003 5.70334 2.08996 5.88637 2.25272C6.06941 2.41547 6.18634 2.63975 6.215 2.883L7.591 14.583C7.73385 15.7998 8.31848 16.9218 9.23391 17.736C10.1493 18.5502 11.3319 19 12.557 19H23C23.2652 19 23.5196 18.8946 23.7071 18.7071C23.8946 18.5196 24 18.2652 24 18C24 17.7348 23.8946 17.4804 23.7071 17.2929C23.5196 17.1054 23.2652 17 23 17H12.557C11.9365 17.0001 11.3313 16.8078 10.8246 16.4497C10.318 16.0915 9.93483 15.585 9.728 15H21.657C22.8291 15.0001 23.9641 14.5884 24.8635 13.8368C25.763 13.0852 26.3698 12.0415 26.578 10.888C26.6014 10.7587 26.599 10.6261 26.5711 10.4977C26.5432 10.3693 26.4902 10.2477 26.4153 10.1398C26.3403 10.0319 26.2449 9.93978 26.1343 9.86878C26.0238 9.79778 25.9003 9.74926 25.771 9.726Z" fill="#374957"/>
</g>
<defs>
<filter id="filter0_d_1_5514" x="0" y="0" width="32" height="32" filterUnits="userSpaceOnUse" color-interpolation-filters="sRGB">
<feFlood flood-opacity="0" result="BackgroundImageFix"/>
<feColorMatrix in="SourceAlpha" type="matrix" values="0 0 0 0 0 0 0 0 0 0 0 0 0 0 0 0 0 0 127 0" result="hardAlpha"/>
<feOffset dy="4"/>
<feGaussianBlur stdDeviation="2"/>
<feComposite in2="hardAlpha" operator="out"/>
<feColorMatrix type="matrix" values="0 0 0 0 0 0 0 0 0 0 0 0 0 0 0 0 0 0 0.25 0"/>
<feBlend mode="normal" in2="BackgroundImageFix" result="effect1_dropShadow_1_5514"/>
<feBlend mode="normal" in="SourceGraphic" in2="effect1_dropShadow_1_5514" result="shape"/>
</filter>
<clipPath id="clip0_1_5514">
<rect width="24" height="24" fill="white" transform="translate(4)"/>
</clipPath>
</defs>
</svg>
