<svg width="24" height="24" viewBox="0 0 24 24" fill="none" xmlns="http://www.w3.org/2000/svg">
<g clip-path="url(#clip0_1_5190)">
<path d="M2 11H13C13.5304 11 14.0391 10.7893 14.4142 10.4142C14.7893 10.0391 15 9.53043 15 9V2C15 1.46957 14.7893 0.960859 14.4142 0.585786C14.0391 0.210714 13.5304 0 13 0L2 0C1.46957 0 0.960859 0.210714 0.585786 0.585786C0.210714 0.960859 0 1.46957 0 2L0 9C0 9.53043 0.210714 10.0391 0.585786 10.4142C0.960859 10.7893 1.46957 11 2 11ZM2 2H13V9H2V2Z" fill="#374957"/>
<path d="M22.0001 0H19.0001C18.4697 0 17.961 0.210714 17.5859 0.585786C17.2109 0.960859 17.0001 1.46957 17.0001 2V9C17.0001 9.53043 17.2109 10.0391 17.5859 10.4142C17.961 10.7893 18.4697 11 19.0001 11H22.0001C22.5306 11 23.0393 10.7893 23.4144 10.4142C23.7894 10.0391 24.0001 9.53043 24.0001 9V2C24.0001 1.46957 23.7894 0.960859 23.4144 0.585786C23.0393 0.210714 22.5306 0 22.0001 0V0ZM22.0001 9H19.0001V2H22.0001V9Z" fill="#374957"/>
<path d="M4.99999 13.0003H1.99999C1.46956 13.0003 0.960852 13.211 0.585779 13.5861C0.210706 13.9612 -7.62939e-06 14.4699 -7.62939e-06 15.0003L-7.62939e-06 22.0003C-7.62939e-06 22.5307 0.210706 23.0394 0.585779 23.4145C0.960852 23.7896 1.46956 24.0003 1.99999 24.0003H4.99999C5.53043 24.0003 6.03913 23.7896 6.41421 23.4145C6.78928 23.0394 6.99999 22.5307 6.99999 22.0003V15.0003C6.99999 14.4699 6.78928 13.9612 6.41421 13.5861C6.03913 13.211 5.53043 13.0003 4.99999 13.0003ZM4.99999 22.0003H1.99999V15.0003H4.99999V22.0003Z" fill="#374957"/>
<path d="M22 13.0003H11C10.4696 13.0003 9.96086 13.211 9.58579 13.5861C9.21071 13.9612 9 14.4699 9 15.0003V22.0003C9 22.5307 9.21071 23.0394 9.58579 23.4145C9.96086 23.7896 10.4696 24.0003 11 24.0003H22C22.5304 24.0003 23.0391 23.7896 23.4142 23.4145C23.7893 23.0394 24 22.5307 24 22.0003V15.0003C24 14.4699 23.7893 13.9612 23.4142 13.5861C23.0391 13.211 22.5304 13.0003 22 13.0003ZM22 22.0003H11V15.0003H22V22.0003Z" fill="#374957"/>
</g>
<defs>
<clipPath id="clip0_1_5190">
<rect width="24" height="24" fill="white"/>
</clipPath>
</defs>
</svg>
